<?xml version="1.0" encoding="UTF-8" standalone="no"?>
<svg
   xmlns:dc="http://purl.org/dc/elements/1.1/"
   xmlns:cc="http://creativecommons.org/ns#"
   xmlns:rdf="http://www.w3.org/1999/02/22-rdf-syntax-ns#"
   xmlns:svg="http://www.w3.org/2000/svg"
   xmlns="http://www.w3.org/2000/svg"
   xmlns:sodipodi="http://sodipodi.sourceforge.net/DTD/sodipodi-0.dtd"
   xmlns:inkscape="http://www.inkscape.org/namespaces/inkscape"
   color-rendering="auto"
   color-interpolation="auto"
   text-rendering="auto"
   stroke-miterlimit="10"
   shape-rendering="auto"
   font-weight="normal"
   font-style="normal"
   font-size="12"
   image-rendering="auto"
   id="svg2"
   version="1.1"
   inkscape:version="0.48.3.1 r9886"
   width="1000"
   height="1200.3116"
   sodipodi:docname="euro_sign.svg"
   style="font-size:12px;font-style:normal;font-weight:normal;fill:#000000;fill-opacity:1;stroke:#000000;stroke-width:1;stroke-linecap:square;stroke-linejoin:miter;stroke-miterlimit:10;stroke-opacity:1;stroke-dasharray:none;stroke-dashoffset:0;font-family:Dialog">
  <metadata
     id="metadata13">
    <rdf:RDF>
      <cc:Work
         rdf:about="">
        <dc:format>image/svg+xml</dc:format>
        <dc:type
           rdf:resource="http://purl.org/dc/dcmitype/StillImage" />
      </cc:Work>
    </rdf:RDF>
  </metadata>
  <sodipodi:namedview
     pagecolor="#ffffff"
     bordercolor="#666666"
     borderopacity="1"
     objecttolerance="10"
     gridtolerance="10"
     guidetolerance="10"
     inkscape:pageopacity="0"
     inkscape:pageshadow="2"
     inkscape:window-width="1280"
     inkscape:window-height="800"
     id="namedview11"
     showgrid="false"
     inkscape:zoom="0.31714785"
     inkscape:cx="406.85675"
     inkscape:cy="935.04889"
     inkscape:window-x="0"
     inkscape:window-y="0"
     inkscape:window-maximized="0"
     inkscape:current-layer="svg2"
     fit-margin-top="0"
     fit-margin-left="0"
     fit-margin-right="0"
     fit-margin-bottom="0" />
  <!--Unicode Character 'EURO SIGN' (U+20AC)-->
  <defs
     id="genericDefs" />
  <g
     id="g5"
     transform="matrix(6.2542764,0,0,5.6303098,25.505565,-992.07804)">
    <g
       id="g7">
      <path
         d="m 155.8125,187.7344 -5.7656,25.875 q -17.1563,-14.0625 -38.8125,-14.0625 -29.3906,0 -46.1953,16.875 -16.8047,16.875 -20.1797,37.8281 l 95.9062,0 -3.6562,18.9844 -94.5,0 -0.2813,5.4844 0.2813,12.9374 90.4218,0 -3.6562,18.9844 -83.8125,0 q 5.3437,28.5469 23.1328,41.9766 17.7891,13.4297 40.1485,13.4297 26.4374,0 41.2031,-13.9219 l 0,29.1094 q -17.4375,8.1562 -38.8125,8.1562 -77.625,0 -93.6563,-78.75 l -21.6562,0 L 0,291.6562 l 14.625,0 Q 14.3438,288.2812 14.3438,279 l 0,-5.7656 -18.4219,0 L 0,254.25 l 16.4531,0 q 7.3125,-38.8125 33.8907,-58.4297 26.5781,-19.6172 61.4531,-19.6172 26.1562,0 44.0156,11.5313 z"
         id="path9"
         inkscape:connector-curvature="0"
         style="stroke:none" />
    </g>
  </g>
</svg>
